<?xml version="1.0" encoding="utf-8"?>
<!-- Generator: Adobe Illustrator 18.0.0, SVG Export Plug-In . SVG Version: 6.00 Build 0)  -->
<!DOCTYPE svg PUBLIC "-//W3C//DTD SVG 1.1//EN" "http://www.w3.org/Graphics/SVG/1.1/DTD/svg11.dtd">
<svg version="1.1" id="Layer_1" xmlns="http://www.w3.org/2000/svg" xmlns:xlink="http://www.w3.org/1999/xlink" x="0px" y="0px"
	 viewBox="0 0 60.2 53.8" enable-background="new 0 0 60.2 53.8" xml:space="preserve">
<g>
	<g id="XMLID_130_">
		<path id="XMLID_186_" fill="#FFFFFF" d="M21.9,53.8l-7.4,0c-0.1,0-0.1,0-0.2-0.1c-1.8-0.2-3.5-0.5-5.2-0.9
			c-1.3-0.3-2.9-0.9-4.5-1.6c-1.9-0.8-1.5-3.5,0.5-3.8c1-0.1,2-0.3,2.8-0.5c3.4-1,6.6-2.6,9.5-4.8C12,42,8.3,39.1,6.3,36
			c-0.8-1.3,0.1-3,1.6-3.1c1,0,1.9-0.2,2.9-0.5c-3.2-0.7-5.8-2.3-7.8-4.8c-1.2-1.5-2.1-3.2-2.6-5c-0.4-1.5,1-2.9,2.5-2.5l0,0
			c1,0.3,2,0.5,3.2,0.5c-3-2.1-4.9-4.8-5.7-8.3c-0.5-2.3-0.5-4.6,0.1-6.8c0.4-1.5,2.3-2,3.4-0.8c7,7.3,15.7,11.3,26,12
			c0-0.3,0-0.2-0.1-0.5c-0.2-0.7-0.4-1.5-0.3-2.2c0.1-4.9,2-8.6,5.5-11.3c1.9-1.4,3.9-2.3,6.3-2.6c0.4-0.1,0.9-0.1,1.3-0.2
			c0.4,0,0.8,0,1.3,0c0.1,0,0.2,0,0.3,0.1c0.5,0.1,1,0.1,1.5,0.2C48.5,0.8,51,2.1,53,4.2c0.1,0.1,0.2,0.1,0.3,0.1
			c1.1-0.2,2.7-0.8,4.3-1.4c1.5-0.6,2.9,1.2,1.9,2.4c-1,1.3-2.2,2.3-3.6,3.2c0.8-0.1,1.6-0.2,2.4-0.4c1.5-0.3,2.5,1.5,1.5,2.7
			c-0.9,1-1.9,1.9-2.7,2.4c-0.2,0.1-0.3,0.3-0.3,0.5c0.1,1.8,0,3.6-0.2,5.4c-0.2,2.1-0.6,4.3-1.2,6.3c-2.2,7.6-6.2,14.2-12.2,19.4
			c-2.1,1.8-4.4,3.4-6.8,4.7c-3.1,1.6-6.4,2.8-9.9,3.5c-1.4,0.3-2.9,0.4-4.3,0.7C22.1,53.8,22,53.8,21.9,53.8z"/>
	</g>
	<g id="XMLID_131_">
		<path id="XMLID_171_" fill="#28AAE2" d="M36.1,13.9c-0.5-0.5-1-1-1.4-1.5c-0.8-0.9-1.4-1.9-1.4-3.2c0-1,0.5-1.6,1.3-2
			c1.1-0.5,2.2-0.6,3.4-0.5c0.5,0,1,0.1,1.6,0.2c0.2-0.7,0.4-1.4,0.7-2.1c0.3-0.9,0.8-1.7,1.5-2.3c0.9-0.8,2-0.9,2.9-0.2
			c1.2,0.8,1.8,2.1,2.4,3.4c0.1,0.2,0.2,0.5,0.3,0.7c0.9-0.2,1.8-0.4,2.6-0.5c0.7-0.1,1.4,0,2.1,0.1c1.5,0.4,2.1,1.5,1.8,3
			c-0.3,1.3-0.9,2.3-1.7,3.3c-0.1,0.2-0.3,0.4-0.5,0.6c0.1,0.1,0.2,0.2,0.3,0.3c0.9,0.9,1.7,1.8,2.2,3c0.4,1,0.5,2-0.3,2.9
			c-0.5,0.5-1.2,0.8-2,0.9c-1.1,0.2-2.1,0.1-3.2,0c-0.2,0-0.4-0.1-0.5-0.1c-0.3,1.2-0.6,2.4-1.3,3.5c-0.2,0.4-0.5,0.7-0.9,1
			c-1.4,1.2-2.7,0.5-3.6-0.4c-0.8-0.9-1.3-1.9-1.8-3c-0.1-0.1-0.1-0.3-0.2-0.4c0,0,0,0-0.1-0.1c-0.8,0.2-1.5,0.4-2.3,0.5
			c-0.8,0.1-1.6,0.1-2.4-0.1c-1.4-0.4-2-1.5-1.8-3c0.3-1.4,1-2.5,1.9-3.6C35.9,14.2,36,14.1,36.1,13.9z M41.8,10.2
			c-0.5,0.4-1,0.7-1.5,1.1c-0.1,0.1-0.2,0.3-0.2,0.5c0.1,1.2,0.1,2.4,0.2,3.6c0,0.2,0.2,0.4,0.3,0.5c1.1,0.6,2.2,1.1,3.3,1.6
			c0.1,0.1,0.4,0,0.5,0c1-0.6,2-1.3,3-2c0.2-0.1,0.3-0.4,0.3-0.5c-0.1-1.2-0.1-2.4-0.2-3.6c0-0.2-0.2-0.4-0.3-0.5
			c-1.1-0.6-2.2-1.1-3.2-1.6c-0.2-0.1-0.4,0-0.6,0C42.8,9.6,42.3,9.9,41.8,10.2z M48.4,19c0.9,0,1.8,0.1,2.7,0.1
			c0.5,0,1-0.1,1.5-0.3c0.8-0.3,1.1-0.9,0.9-1.7c0-0.2-0.1-0.4-0.2-0.6c-0.5-1.1-1.4-2-2.3-2.8c-0.1,0.1-0.1,0.1-0.2,0.1
			c-0.7,0.6-1.3,1.2-2,1.9c-0.1,0.1-0.2,0.3-0.2,0.4C48.6,17,48.5,17.9,48.4,19z M36.7,14.5c-0.5,0.8-1,1.6-1.5,2.4
			c-0.2,0.4-0.3,0.8-0.4,1.2c-0.2,1,0.3,1.6,1.3,1.8c1.4,0.3,2.7-0.1,3.9-0.5c-0.2-1-0.4-2-0.6-3c0-0.1-0.1-0.1-0.1-0.2
			C38.5,15.7,37.7,15.2,36.7,14.5z M40.5,7.1c0.9,0.3,1.8,0.6,2.6,0.8c0.3,0.1,0.4,0.1,0.7,0c0.5-0.3,1.1-0.5,1.7-0.8
			c0.3-0.1,0.5-0.3,0.8-0.4c-0.2-0.4-0.3-0.8-0.5-1.2c-0.4-0.8-0.8-1.6-1.5-2.2c-0.9-0.8-1.8-0.7-2.5,0.2
			C41.1,4.6,40.8,5.8,40.5,7.1z M47.7,7.3c0.2,0.8,0.4,1.5,0.5,2.3c0.1,0.6,0.3,1,0.9,1.3c0.7,0.4,1.3,0.9,1.9,1.3
			c0.1-0.2,0.3-0.4,0.4-0.5c0.7-0.9,1.4-1.9,1.5-3.1c0.1-0.9-0.3-1.5-1.2-1.7C50.3,6.5,49,6.9,47.7,7.3z M47.2,19.7
			c-0.8-0.3-1.6-0.5-2.4-0.8c-0.4-0.2-0.8-0.2-1.2,0.1c-0.2,0.2-0.5,0.2-0.8,0.4c-0.5,0.2-1,0.5-1.6,0.7c0.2,0.5,0.4,1.1,0.7,1.5
			c0.4,0.7,0.9,1.4,1.4,1.9c0.7,0.7,1.5,0.6,2.1,0C46.6,22.4,46.9,21.1,47.2,19.7z M39.3,7.9c-1.3-0.2-2.7-0.4-4,0
			C34.3,8.2,34,9,34.3,10c0.5,1.3,1.4,2.3,2.4,3.2c0.1-0.1,0.1-0.1,0.2-0.1c0.6-0.5,1.1-1,1.7-1.6c0.2-0.2,0.4-0.4,0.5-0.5
			C39.2,9.9,39.2,8.9,39.3,7.9z M40.3,8c-0.1,0.7-0.1,1.4-0.2,2.2c0.8-0.5,1.5-1,2.3-1.5C41.7,8.5,41,8.3,40.3,8z M50.3,13
			c-0.6-0.4-1.2-0.8-1.8-1.3c0.1,1,0.1,1.9,0.2,2.8C49.2,14,49.7,13.5,50.3,13z M43,18.3c-0.9-0.4-1.6-0.8-2.5-1.3
			c0.2,0.8,0.3,1.4,0.5,2.1C41.7,18.9,42.4,18.6,43,18.3z M39.2,15.1c-0.1-1-0.1-1.9-0.2-2.8c-0.6,0.5-1,1-1.6,1.5
			C38.1,14.3,38.6,14.7,39.2,15.1z M47.2,9.8c-0.2-0.7-0.3-1.4-0.5-2.1c-0.7,0.3-1.3,0.6-2,0.9C45.6,8.9,46.4,9.3,47.2,9.8z
			 M47.4,18.7c0.1-0.7,0.1-1.4,0.2-2.1c-0.8,0.5-1.5,1-2.3,1.5C46.1,18.3,46.7,18.5,47.4,18.7z"/>
		<path id="XMLID_170_" fill="#28AAE2" d="M45,15.1c-0.9,0.6-2.3,0.3-2.9-0.6c-0.6-0.9-0.3-2.2,0.6-2.9c1.1-0.7,2.4-0.2,2.9,0.6
			C46.2,13.3,46,14.5,45,15.1z"/>
	</g>
</g>
</svg>
